# xmcd
# 
# Track frame offsets:
#     150
#     15434
#     28823
#     43309
#     60595
#     77045
#     90569
#     104395
#     117435
#     128017
# 
# Disc length: 1855
# 
# Revision: 8
# Processed by: cddbd v1.5.2PL0 Copyright (c) Steve Scherf et al.
# Submitted via: BonkEnc v1.0.8
# 
DISCID=7b073d0a
DTITLE=zebrahead - WASTE OF MFZB
DYEAR=2004
DGENRE=Punk
TTITLE0=Are You For Real?
TTITLE1=Let Me Go
TTITLE2=One Less Headache
TTITLE3=Burn The School Down
TTITLE4=Lightning Rod
TTITLE5=Blindside
TTITLE6=Veils And Visions
TTITLE7=One Shot
TTITLE8=Timing Is Everything
TTITLE9=Wanna Be
EXTD=
EXTT0=
EXTT1=
EXTT2=
EXTT3=
EXTT4=
EXTT5=
EXTT6=
EXTT7=
EXTT8=
EXTT9=
PLAYORDER=
